<?xml version="1.0" encoding="UTF-8"?>
<svg id="Capa_2" data-name="Capa 2" xmlns="http://www.w3.org/2000/svg" viewBox="0 0 365.12 365.12">
  <defs>
    <style>
      .cls-1 {
        fill: #fff;
      }

      .cls-1, .cls-2 {
        stroke: #fff;
        stroke-miterlimit: 10;
      }

      .cls-2 {
        fill: none;
        stroke-width: 25px;
      }
    </style>
  </defs>
  <g id="Capa_1-2" data-name="Capa 1">
    <circle class="cls-2" cx="182.56" cy="182.56" r="170.06"/>
    <path class="cls-1" d="m231.63,72.1c-3.35-.38-9.11-1.27-15.18-1.8-16.03-1.39-21.36-1.14-24-.96-5.85.39-10.29.73-15.84,2.88-5.7,2.21-9.49,5.13-11.52,6.72-8.3,6.5-12.16,13.79-12.96,15.36-1.98,3.86-2.84,6.97-3.84,10.56-1.96,7.05-2.52,12.83-2.88,17.76-.89,12.37-.81,24.05-.48,33.12-11.68.16-23.36.32-35.04.48l.48,40.32c11.84.16,23.68.32,35.52.48.16,32.96.32,65.92.48,98.88,14.72.16,29.44.32,44.16.48v-99.36c10.72.16,21.44.32,32.16.48,2.4-13.76,4.8-27.52,7.2-41.28h-39.36c-.27-7.18-.16-13.08,0-17.28.27-6.9.96-16.32.96-16.32h0s1.32-3.93,3.36-6.72c2.1-2.88,4.77-4.29,5.76-4.8,3.25-1.67,6.23-1.83,8.16-1.92,9.72-.43,18.22-.48,22.56-.48-.16-12.32.46-24.28.3-36.6Z"/>
  </g>
</svg>