<?xml version="1.0" encoding="UTF-8"?>
<svg id="Capa_2" data-name="Capa 2" xmlns="http://www.w3.org/2000/svg" viewBox="0 0 372.84 380.73">
  <defs>
    <style>
      .cls-1 {
        fill: #fff;
      }

      .cls-2 {
        fill: none;
        stroke: #fff;
        stroke-miterlimit: 10;
        stroke-width: 40px;
      }
    </style>
  </defs>
  <g id="Capa_1-2" data-name="Capa 1">
    <path class="cls-1" d="m301.59,93.56c-4.01-.43-10.89-1.44-18.13-2.03-19.15-1.57-25.51-1.28-28.67-1.08-6.99.44-12.28.82-18.92,3.25-6.81,2.49-11.33,5.79-13.76,7.58-9.91,7.33-14.52,15.56-15.48,17.33-2.36,4.35-3.39,7.86-4.59,11.91-2.34,7.96-3.01,14.47-3.44,20.04-1.07,13.95-.97,27.13-.57,37.37-13.95.18-27.9.36-41.85.54.19,15.16.38,30.33.57,45.49,14.14.18,28.28.36,42.43.54.19,37.19.38,74.38.57,111.56,17.58.18,35.16.36,52.75.54v-112.1c12.8.18,25.61.36,38.41.54,2.87-15.52,5.73-31.05,8.6-46.57h-47.01c-.32-8.1-.19-14.76,0-19.5.32-7.79,1.15-18.41,1.15-18.41h0s1.58-4.43,4.01-7.58c2.51-3.25,5.69-4.84,6.88-5.42,3.88-1.89,7.45-2.07,9.75-2.17,11.61-.49,21.77-.54,26.95-.54-.19-13.9.55-27.39.36-41.29Z"/>
    <rect class="cls-2" x="20" y="20" width="332.84" height="340.73" rx="45" ry="45"/>
  </g>
</svg>