<?xml version="1.0" encoding="UTF-8"?>
<svg id="Capa_2" data-name="Capa 2" xmlns="http://www.w3.org/2000/svg" viewBox="0 0 44.7 29.09">
  <defs>
    <style>
      .cls-1 {
        fill: #212851;
      }
    </style>
  </defs>
  <g id="Capa_1-2" data-name="Capa 1">
    <g>
      <path class="cls-1" d="m2.02.24C15.52.16,29.02.08,42.52,0c.42,0,.61.52.29.79-5.88,4.89-11.75,9.78-17.63,14.67-1.6,1.33-3.17,1.68-5.56.21L1.81.84c-.24-.2-.1-.6.21-.6Z"/>
      <path class="cls-1" d="m0,1.4c.02,7.86.04,15.72.06,23.58,5.2-3.43,10.39-6.86,15.59-10.29C10.44,10.26,5.22,5.83,0,1.4Z"/>
      <path class="cls-1" d="m17.1,15.91C11.39,19.64,5.95,23.34.24,27.06c-.08.12-.14.51,0,1.02.09.32.29.78.91.94.39.1.79.06.84.06.95,0,16.71-.17,40.53-.04,0,0,.02,0,.02,0,.17.04.75,0,1.25-.24.15-.07.52-.42.75-1.04.16-.42.13-.61.1-.77l-17.06-11.25c-.59.55-1.19,1.1-1.78,1.65-2,1.86-4.63,1.59-6.84,0-.55-.39-1.34-.97-1.86-1.5Z"/>
      <path class="cls-1" d="m44.7,1.3c-.02,7.86-.04,15.72-.06,23.58-5.2-3.43-10.39-6.86-15.59-10.29,5.22-4.43,10.44-8.86,15.65-13.29Z"/>
    </g>
  </g>
</svg>