<?xml version="1.0" encoding="UTF-8"?>
<svg id="Capa_2" data-name="Capa 2" xmlns="http://www.w3.org/2000/svg" viewBox="0 0 109.32 101.34">
  <defs>
    <style>
      .cls-1 {
        fill: #01135b;
        stroke: #060074;
        stroke-miterlimit: 10;
      }
    </style>
  </defs>
  <g id="Capa_1-2" data-name="Capa 1">
    <path class="cls-1" d="m34.43,15.65c-1.36-3.94-2.45-6.99-5.36-10.01-1.31-1.37-4.2-4.36-7.87-5.01C13.68-.69,4.97,8.28,1.9,16.72c-3.67,10.07.57,19.71,4.65,28.6,13.83,30.21,40,43.5,51.48,49.34,7.58,3.85,15.37,6.78,24.67,6.08,3.56-.27,10.26-1.29,16.8-5.72,3.72-2.51,7.69-5.2,8.94-10.37,1.14-4.72-.36-10.02-3.58-13.23-.74-.74-3.01-1.82-7.51-3.93-7.96-3.74-9.55-4.11-11.08-4.29-2.59-.3-5.6-.65-8.22,1.07-1.78,1.16-2.97,3.16-5.36,7.15-1.86,3.11-1.89,3.73-2.86,4.29-2.53,1.45-6.24-.53-9.65-2.5-8.41-4.85-12.62-7.28-16.45-10.73-4.25-3.82-10.34-10.17-15.73-19.66.94-1.07,2.32-2.67,3.93-4.65,2.33-2.86,3.5-4.29,3.93-5.01,2.93-4.89.67-11.45-1.43-17.52Z"/>
  </g>
</svg>